HIERARCHY
ROOT Hips
{
	OFFSET 0.000000 100.481300 0.000000
	CHANNELS 6 Xposition Yposition Zposition Xrotation Yrotation Zrotation 
	JOINT Spine
	{
		OFFSET -0.279200 12.230698 -2.892100
		CHANNELS 3 Xrotation Yrotation Zrotation
		JOINT Spine1
		{
			OFFSET -0.232667 10.192268 -1.242267
			CHANNELS 3 Xrotation Yrotation Zrotation
			JOINT Spine1_split
			{
				OFFSET -0.232667 10.192268 -1.242267
				CHANNELS 3 Xrotation Yrotation Zrotation
				JOINT Spine2
				{
					OFFSET -0.232667 10.192268 -1.242267
					CHANNELS 3 Xrotation Yrotation Zrotation
					JOINT Neck
					{
						OFFSET -0.418800 17.814194 8.416900
						CHANNELS 3 Xrotation Yrotation Zrotation
						JOINT Head
						{
							OFFSET 0.000000 7.031097 3.806800
							CHANNELS 3 Xrotation Yrotation Zrotation
							JOINT HeadTop_End
							{
								OFFSET 0.000000 24.646606 12.978600
								CHANNELS 3 Xrotation Yrotation Zrotation
								End Site
								{
									OFFSET 0.000000 0.000000 0.000000
								}
							}
						}
					}
					JOINT LeftShoulder
					{
						OFFSET 8.476499 7.247704 -3.868750
						CHANNELS 3 Xrotation Yrotation Zrotation
						JOINT LeftShoulder_split
						{
							OFFSET 8.476499 7.247704 -3.868750
							CHANNELS 3 Xrotation Yrotation Zrotation
							JOINT LeftArm
							{
								OFFSET 9.308998 -2.777710 0.208600
								CHANNELS 3 Xrotation Yrotation Zrotation
								JOINT LeftForeArm
								{
									OFFSET 29.972298 0.000000 0.000000
									CHANNELS 3 Xrotation Yrotation Zrotation
									JOINT LeftHand
									{
										OFFSET 26.026505 0.000000 0.000000
										CHANNELS 3 Xrotation Yrotation Zrotation
										JOINT LeftHandThumb1
										{
											OFFSET 12.240501 -7.147949 9.207150
											CHANNELS 3 Xrotation Yrotation Zrotation
											JOINT LeftHandThumb2
											{
												OFFSET 4.138618 -2.389435 2.389433
												CHANNELS 3 Xrotation Yrotation Zrotation
												JOINT LeftHandThumb3
												{
													OFFSET 2.726913 -1.574387 1.574386
													CHANNELS 3 Xrotation Yrotation Zrotation
													JOINT LeftHandThumb4
													{
														OFFSET 3.941010 -2.275345 2.275342
														CHANNELS 3 Xrotation Yrotation Zrotation
														End Site
														{
															OFFSET 0.000000 0.000000 0.000000
														}
													}
												}
											}
										}
										JOINT LeftHandIndex1
										{
											OFFSET 24.424698 -1.985611 5.953459
											CHANNELS 3 Xrotation Yrotation Zrotation
											JOINT LeftHandIndex2
											{
												OFFSET 6.426697 0.000000 0.000000
												CHANNELS 3 Xrotation Yrotation Zrotation
												JOINT LeftHandIndex3
												{
													OFFSET 5.337898 0.000000 0.000000
													CHANNELS 3 Xrotation Yrotation Zrotation
													JOINT LeftHandIndex4
													{
														OFFSET 4.409401 0.000000 0.000000
														CHANNELS 3 Xrotation Yrotation Zrotation
														End Site
														{
															OFFSET 0.000000 0.000000 0.000000
														}
													}
												}
											}
										}
										JOINT LeftHandMiddle1
										{
											OFFSET 23.810104 0.000000 0.000000
											CHANNELS 3 Xrotation Yrotation Zrotation
											JOINT LeftHandMiddle2
											{
												OFFSET 7.176498 0.000000 0.000000
												CHANNELS 3 Xrotation Yrotation Zrotation
												JOINT LeftHandMiddle3
												{
													OFFSET 6.774902 0.000000 0.000000
													CHANNELS 3 Xrotation Yrotation Zrotation
													JOINT LeftHandMiddle4
													{
														OFFSET 5.403328 0.000000 0.000000
														CHANNELS 3 Xrotation Yrotation Zrotation
														End Site
														{
															OFFSET 0.000000 0.000000 0.000000
														}
													}
												}
											}
										}
										JOINT LeftHandRing1
										{
											OFFSET 22.908401 -0.839279 -6.020567
											CHANNELS 3 Xrotation Yrotation Zrotation
											JOINT LeftHandRing2
											{
												OFFSET 6.337502 0.000000 0.000000
												CHANNELS 3 Xrotation Yrotation Zrotation
												JOINT LeftHandRing3
												{
													OFFSET 5.779297 0.000000 0.000000
													CHANNELS 3 Xrotation Yrotation Zrotation
													JOINT LeftHandRing4
													{
														OFFSET 4.965698 0.000000 0.000000
														CHANNELS 3 Xrotation Yrotation Zrotation
														End Site
														{
															OFFSET 0.000000 0.000000 0.000000
														}
													}
												}
											}
										}
										JOINT LeftHandPinky1
										{
											OFFSET 20.037003 -1.530319 -10.950146
											CHANNELS 3 Xrotation Yrotation Zrotation
											JOINT LeftHandPinky2
											{
												OFFSET 5.254700 0.000000 0.000000
												CHANNELS 3 Xrotation Yrotation Zrotation
												JOINT LeftHandPinky3
												{
													OFFSET 4.810204 0.000000 0.000000
													CHANNELS 3 Xrotation Yrotation Zrotation
													JOINT LeftHandPinky4
													{
														OFFSET 3.647202 0.000000 0.000000
														CHANNELS 3 Xrotation Yrotation Zrotation
														End Site
														{
															OFFSET 0.000000 0.000000 0.000000
														}
													}
												}
											}
										}
									}
								}
							}
						}
					}
					JOINT RightShoulder
					{
						OFFSET -7.570500 7.247704 -3.868750
						CHANNELS 3 Xrotation Yrotation Zrotation
						JOINT RightShoulder_split
						{
							OFFSET -7.570500 7.247704 -3.868750
							CHANNELS 3 Xrotation Yrotation Zrotation
							JOINT RightArm
							{
								OFFSET -9.308998 -2.777710 0.208500
								CHANNELS 3 Xrotation Yrotation Zrotation
								JOINT RightForeArm
								{
									OFFSET -29.972300 0.000000 0.000000
									CHANNELS 3 Xrotation Yrotation Zrotation
									JOINT RightHand
									{
										OFFSET -26.026505 0.000000 0.000000
										CHANNELS 3 Xrotation Yrotation Zrotation
										JOINT RightHandThumb1
										{
											OFFSET -12.240601 -7.148026 9.207092
											CHANNELS 3 Xrotation Yrotation Zrotation
											JOINT RightHandThumb2
											{
												OFFSET -4.138618 -2.389435 2.389433
												CHANNELS 3 Xrotation Yrotation Zrotation
												JOINT RightHandThumb3
												{
													OFFSET -2.726974 -1.574417 1.574421
													CHANNELS 3 Xrotation Yrotation Zrotation
													JOINT RightHandThumb4
													{
														OFFSET -3.941010 -2.275345 2.275343
														CHANNELS 3 Xrotation Yrotation Zrotation
														End Site
														{
															OFFSET 0.000000 0.000000 0.000000
														}
													}
												}
											}
										}
										JOINT RightHandIndex1
										{
											OFFSET -24.424698 -1.985657 5.953444
											CHANNELS 3 Xrotation Yrotation Zrotation
											JOINT RightHandIndex2
											{
												OFFSET -6.426697 0.000000 0.000000
												CHANNELS 3 Xrotation Yrotation Zrotation
												JOINT RightHandIndex3
												{
													OFFSET -5.337898 0.000000 0.000000
													CHANNELS 3 Xrotation Yrotation Zrotation
													JOINT RightHandIndex4
													{
														OFFSET -4.409401 0.000000 0.000000
														CHANNELS 3 Xrotation Yrotation Zrotation
														End Site
														{
															OFFSET 0.000000 0.000000 0.000000
														}
													}
												}
											}
										}
										JOINT RightHandMiddle1
										{
											OFFSET -23.810097 0.000000 0.000000
											CHANNELS 3 Xrotation Yrotation Zrotation
											JOINT RightHandMiddle2
											{
												OFFSET -7.176498 0.000000 0.000000
												CHANNELS 3 Xrotation Yrotation Zrotation
												JOINT RightHandMiddle3
												{
													OFFSET -6.774902 0.000000 0.000000
													CHANNELS 3 Xrotation Yrotation Zrotation
													JOINT RightHandMiddle4
													{
														OFFSET -5.403328 0.000000 0.000000
														CHANNELS 3 Xrotation Yrotation Zrotation
														End Site
														{
															OFFSET 0.000000 0.000000 0.000000
														}
													}
												}
											}
										}
										JOINT RightHandRing1
										{
											OFFSET -22.908302 -0.839325 -6.020576
											CHANNELS 3 Xrotation Yrotation Zrotation
											JOINT RightHandRing2
											{
												OFFSET -6.337502 0.000000 0.000000
												CHANNELS 3 Xrotation Yrotation Zrotation
												JOINT RightHandRing3
												{
													OFFSET -5.779297 0.000000 0.000000
													CHANNELS 3 Xrotation Yrotation Zrotation
													JOINT RightHandRing4
													{
														OFFSET -4.965698 0.000000 0.000000
														CHANNELS 3 Xrotation Yrotation Zrotation
														End Site
														{
															OFFSET 0.000000 0.000000 0.000000
														}
													}
												}
											}
										}
										JOINT RightHandPinky1
										{
											OFFSET -20.037003 -1.530334 -10.950259
											CHANNELS 3 Xrotation Yrotation Zrotation
											JOINT RightHandPinky2
											{
												OFFSET -5.254700 0.000000 0.000000
												CHANNELS 3 Xrotation Yrotation Zrotation
												JOINT RightHandPinky3
												{
													OFFSET -4.810204 0.000000 0.000000
													CHANNELS 3 Xrotation Yrotation Zrotation
													JOINT RightHandPinky4
													{
														OFFSET -3.647202 0.000000 0.000000
														CHANNELS 3 Xrotation Yrotation Zrotation
														End Site
														{
															OFFSET 0.000000 0.000000 0.000000
														}
													}
												}
											}
										}
									}
								}
							}
						}
					}
				}
			}
		}
	}
	JOINT LeftUpLeg
	{
		OFFSET 15.427100 -6.655098 0.678600
		CHANNELS 3 Xrotation Yrotation Zrotation
		JOINT LeftLeg
		{
			OFFSET 4.081073 -39.591068 13.024000
			CHANNELS 3 Xrotation Yrotation Zrotation
			JOINT LeftFoot
			{
				OFFSET -4.081074 -37.707932 -15.979700
				CHANNELS 3 Xrotation Yrotation Zrotation
				JOINT LeftToeBase
				{
					OFFSET 5.346399 -15.068900 20.645000
					CHANNELS 3 Xrotation Yrotation Zrotation
					JOINT LeftToe_End
					{
						OFFSET 2.754700 0.931300 11.300900
						CHANNELS 3 Xrotation Yrotation Zrotation
						End Site
						{
							OFFSET 0.000000 0.000000 0.000000
						}
					}
				}
			}
		}
	}
	JOINT RightUpLeg
	{
		OFFSET -15.569500 -6.655098 0.678600
		CHANNELS 3 Xrotation Yrotation Zrotation
		JOINT RightLeg
		{
			OFFSET -4.081825 -39.591045 13.023800
			CHANNELS 3 Xrotation Yrotation Zrotation
			JOINT RightFoot
			{
				OFFSET 4.081824 -37.707954 -15.979600
				CHANNELS 3 Xrotation Yrotation Zrotation
				JOINT RightToeBase
				{
					OFFSET -5.346400 -15.068900 20.645000
					CHANNELS 3 Xrotation Yrotation Zrotation
					JOINT RightToe_End
					{
						OFFSET -2.754700 0.931300 11.300900
						CHANNELS 3 Xrotation Yrotation Zrotation
						End Site
						{
							OFFSET 0.000000 0.000000 0.000000
						}
					}
				}
			}
		}
	}
}
MOTION
Frames: 4
Frame Time: 0.016667
4.784521 72.478317 -1.182945 -3.095329 -42.928231 16.792338 0.376594 -1.913413 8.040676 0.027302 -1.386082 5.062934 0.000000 0.000000 0.000000 -0.080031 -1.272387 5.054162 -11.424517 3.372347 7.860921 -19.486308 29.446260 -6.823209 -0.000001 0.000001 0.000001 -0.548179 2.093935 14.135921 0.000000 0.000000 0.000000 -33.452033 -33.142004 -47.500728 0.001778 -87.864400 0.001848 -23.599366 -10.877274 -3.087996 14.035334 -26.979145 7.263431 13.226133 36.584880 -28.242986 0.587661 16.311296 -9.809437 -0.000001 0.000001 0.000002 0.201888 1.658372 -13.881094 0.378666 2.256068 -19.053506 0.095278 1.143807 -9.523038 -0.000000 0.000000 0.000001 0.201426 1.656500 -13.865099 0.379292 2.257894 -19.069506 0.095279 1.143806 -9.523049 0.000000 0.000001 0.000001 0.201888 1.658372 -13.881094 0.378667 2.256069 -19.053511 0.095278 1.143805 -9.523037 0.000000 0.000001 0.000000 1.160824 5.598142 -13.431392 0.380582 -1.801555 -19.536750 0.095277 1.143806 -9.523035 -0.000001 -0.000001 -0.000003 -0.011248 -5.892456 7.391184 0.000000 0.000000 0.000000 118.821140 72.028122 -83.805895 -0.000008 25.801458 0.000011 -19.295722 3.278943 -3.516595 40.606595 -3.110533 26.124215 -37.849504 -44.265063 -46.874994 -12.282873 -22.415217 -17.633353 -0.000001 0.000000 -0.000001 3.635336 -6.110980 61.464456 7.728595 -6.904471 96.464462 2.305166 -5.174790 47.998731 0.000005 0.000001 0.000000 3.635337 -6.110979 61.464456 7.728598 -6.904473 96.464462 2.305155 -5.174785 47.998731 0.000002 0.000001 -0.000001 3.635324 -6.110984 61.464456 7.728609 -6.904487 96.464442 2.305162 -5.174790 47.998741 -0.000002 -0.000000 -0.000001 3.635336 -6.110980 61.464456 7.728607 -6.904477 96.464462 2.305160 -5.174781 47.998738 -0.000002 0.000000 -0.000001 -22.474667 28.979765 -0.205109 55.672848 1.569610 2.373373 -22.217571 20.770358 -8.371497 -0.000043 0.000003 -0.000003 -0.000000 -0.000000 -0.000000 -34.266461 10.316008 -38.266435 66.045621 6.196482 -8.517939 -25.493918 -8.409085 22.387379 -1.795055 0.000005 0.000002 0.000000 -0.000001 -0.000000 
5.135895 72.884995 -1.032951 -2.259207 -42.461449 17.379604 0.417596 -1.635356 8.025321 0.080684 -1.191920 5.048751 0.000000 0.000000 0.000000 -0.026330 -1.085812 5.036025 -11.396557 3.371370 7.365473 -19.078936 28.735572 -7.123457 -0.000003 -0.000001 0.000002 -0.621169 2.423847 13.794282 0.000000 0.000000 0.000000 -32.468356 -33.363722 -47.016639 -0.015499 -89.505107 -0.015617 -24.397905 -11.122536 -2.975583 14.573622 -27.004434 6.829629 13.798554 36.351291 -28.336083 0.869710 16.254211 -9.818233 -0.000002 0.000000 0.000000 0.215243 1.711480 -14.335245 0.390033 2.288688 -19.340142 0.098155 1.160831 -9.666167 -0.000000 0.000001 0.000002 0.214767 1.709616 -14.319243 0.390676 2.290506 -19.356165 0.098156 1.160833 -9.666161 -0.000001 0.000000 0.000001 0.215243 1.711480 -14.335244 0.390034 2.288689 -19.340140 0.098157 1.160829 -9.666178 0.000000 0.000000 0.000001 1.205585 5.643524 -13.888377 0.392222 -1.769031 -19.822568 0.098154 1.160834 -9.666167 -0.000001 -0.000001 -0.000003 -0.002585 -5.888131 7.492394 0.000000 0.000000 0.000000 118.408542 71.656020 -83.809215 0.000006 25.428890 -0.000010 -19.616665 4.100320 -3.061030 40.606598 -3.110533 26.124219 -37.849507 -44.265066 -46.874991 -12.282873 -22.415216 -17.633353 -0.000001 0.000000 -0.000001 3.635336 -6.110981 61.464456 7.728595 -6.904467 96.464462 2.305163 -5.174790 47.998741 0.000001 0.000001 0.000000 3.635336 -6.110981 61.464456 7.728602 -6.904472 96.464462 2.305151 -5.174784 47.998734 0.000004 -0.000001 0.000000 3.635320 -6.110986 61.464456 7.728610 -6.904490 96.464442 2.305155 -5.174790 47.998741 0.000004 -0.000001 -0.000000 3.635336 -6.110981 61.464456 7.728610 -6.904477 96.464462 2.305159 -5.174782 47.998741 0.000003 -0.000001 -0.000001 -22.804161 28.374110 -0.784199 54.977945 1.764242 1.812071 -21.986256 20.829138 -7.849102 -0.000043 0.000003 -0.000003 -0.000000 -0.000000 -0.000000 -35.125918 10.322169 -38.002281 65.461435 5.958425 -8.540234 -24.819174 -7.986585 22.353510 -2.160324 -0.000008 -0.000011 -0.000000 -0.000003 -0.000000 
5.494259 73.420708 -0.898453 -1.368666 -42.033421 17.994973 0.469266 -1.345573 7.976817 0.140025 -0.990045 5.027510 0.000000 0.000000 0.000000 0.034601 -0.892060 5.011684 -11.378204 3.392049 6.943747 -18.730011 28.242388 -7.478143 -0.000002 0.000003 -0.000001 -0.713347 2.845084 13.378911 0.000000 0.000000 0.000000 -31.471736 -33.569444 -46.626225 0.008741 -90.796860 0.008820 -24.660326 -11.610470 -3.034251 15.084983 -27.036520 6.348046 14.365804 36.116828 -28.424998 1.150531 16.196969 -9.826639 -0.000001 -0.000002 0.000006 0.228965 1.764284 -14.787764 0.401518 2.321128 -19.625741 0.101064 1.177792 -9.808792 0.000000 -0.000001 -0.000002 0.228472 1.762421 -14.771766 0.402168 2.322945 -19.641742 0.101068 1.177790 -9.808806 0.000001 -0.000000 -0.000000 0.228965 1.764284 -14.787764 0.401517 2.321130 -19.625741 0.101062 1.177789 -9.808796 -0.000000 0.000001 0.000002 1.250544 5.688374 -14.343770 0.403975 -1.736688 -20.107353 0.101063 1.177790 -9.808798 0.000000 0.000001 -0.000001 0.007039 -5.858265 7.548147 0.000000 0.000000 0.000000 118.019576 71.112515 -83.953393 -0.000018 25.056458 0.000012 -20.278266 5.167622 -2.331207 40.606598 -3.110533 26.124215 -37.849504 -44.265059 -46.874984 -12.282875 -22.415219 -17.633359 -0.000001 0.000000 -0.000000 3.635335 -6.110982 61.464456 7.728596 -6.904471 96.464462 2.305161 -5.174787 47.998745 -0.000001 -0.000001 0.000000 3.635336 -6.110981 61.464456 7.728601 -6.904473 96.464462 2.305158 -5.174785 47.998738 0.000002 -0.000001 -0.000001 3.635325 -6.110987 61.464463 7.728609 -6.904489 96.464442 2.305160 -5.174788 47.998738 -0.000003 0.000000 -0.000000 3.635335 -6.110982 61.464456 7.728607 -6.904480 96.464462 2.305156 -5.174782 47.998741 -0.000001 -0.000001 -0.000003 -23.061712 27.984754 -1.369663 54.040679 2.001344 1.360866 -21.618577 20.739396 -7.360199 -0.000043 0.000003 -0.000003 -0.000000 -0.000000 -0.000000 -36.195392 10.123851 -37.636822 64.761361 5.643617 -8.600526 -24.105814 -7.197874 22.167565 -2.520435 -0.000008 0.000002 -0.000000 0.000000 0.000000 
5.842649 74.076462 -0.786489 -0.453053 -41.615496 18.611799 0.523012 -1.062455 7.897984 0.196462 -0.793570 5.000026 0.000000 0.000000 0.000000 0.093391 -0.702942 4.982097 -11.340866 3.432826 6.607820 -18.475213 27.971494 -7.838872 0.000002 0.000003 0.000001 -0.812579 3.306761 12.932789 0.000000 0.000000 0.000000 -30.510527 -33.820614 -46.309355 -0.003188 -91.652710 -0.003208 -24.475990 -12.258158 -3.030212 15.586977 -27.071573 5.859855 14.927344 35.881712 -28.509732 1.429817 16.139628 -9.834642 0.000000 -0.000001 0.000002 0.243039 1.816742 -15.238222 0.413106 2.353358 -19.910008 0.104005 1.194658 -9.950769 0.000000 -0.000001 -0.000000 0.242533 1.814882 -15.222215 0.413766 2.355173 -19.926018 0.104010 1.194658 -9.950791 0.000000 0.000001 0.000001 0.243039 1.816742 -15.238224 0.413105 2.353359 -19.910008 0.104010 1.194660 -9.950783 -0.000000 -0.000001 0.000001 1.295651 5.732673 -14.797118 0.415836 -1.704552 -20.390802 0.104006 1.194657 -9.950775 -0.000001 -0.000000 0.000002 0.016836 -5.810543 7.566558 0.000000 0.000000 0.000000 117.834342 70.381425 -84.393742 0.000007 24.613628 0.000007 -21.332902 6.419933 -1.469733 40.606598 -3.110534 26.124215 -37.849507 -44.265066 -46.874994 -12.282875 -22.415223 -17.633358 0.000000 -0.000000 -0.000000 3.635333 -6.110980 61.464449 7.728598 -6.904471 96.464462 2.305158 -5.174789 47.998738 -0.000000 -0.000000 0.000001 3.635333 -6.110980 61.464449 7.728601 -6.904475 96.464456 2.305153 -5.174786 47.998734 0.000000 -0.000001 -0.000001 3.635320 -6.110985 61.464456 7.728608 -6.904485 96.464442 2.305158 -5.174789 47.998734 -0.000004 -0.000000 -0.000000 3.635333 -6.110980 61.464449 7.728610 -6.904481 96.464462 2.305159 -5.174784 47.998741 -0.000001 0.000000 -0.000001 -23.243281 27.843068 -1.958011 52.876654 2.255519 1.074416 -21.109033 20.482909 -6.916470 -0.000043 0.000003 -0.000003 -0.000000 0.000000 0.000000 -37.377527 9.724736 -37.286959 63.871455 5.294702 -8.681209 -23.273919 -6.180336 21.920785 -2.930906 -0.000015 -0.000003 -0.000000 0.000000 0.000000 
